<svg id="Bulb" xmlns="http://www.w3.org/2000/svg" width="32" height="32" viewBox="0 0 32 32">
  <rect id="Rectangle_10713" data-name="Rectangle 10713" width="32" height="32" fill="auto" opacity="0"/>
  <path id="Path_548" data-name="Path 548" d="M9.973,18h4.054a5.747,5.747,0,0,1,1.741-3.277c.112-.122.831-.866.916-.972a6,6,0,1,0-9.369,0c.085.107.806.853.917.973A5.749,5.749,0,0,1,9.973,18ZM14,20H10v1h4ZM5.754,15a8,8,0,1,1,12.49,0c-.62.773-2.244,2-2.244,3.5V21a2,2,0,0,1-2,2H10a2,2,0,0,1-2-2V18.5C8,17,6.375,15.774,5.754,15ZM13,10h2.5L11,16V12H8.5L13,6Z" transform="translate(4 4)" fill="auto"/>
</svg>
