<svg id="Change" xmlns="http://www.w3.org/2000/svg" width="32" height="32" viewBox="0 0 32 32">
  <rect id="Rectangle_10715" data-name="Rectangle 10715" width="32" height="32" fill="#fff" opacity="0.002"/>
  <path id="Path_553" data-name="Path 553" d="M17.97,2.293,16.484,3.78l2.409,2.411H13.551v2.1h5.342L16.484,10.7l1.486,1.487,4.944-4.95Zm-8.1,4.95A2.626,2.626,0,1,0,7.248,9.871,2.627,2.627,0,0,0,9.874,7.242Zm2.1,0A4.727,4.727,0,1,1,7.248,2.511,4.729,4.729,0,0,1,11.975,7.242ZM6.107,18.809,8.516,21.22,7.03,22.707l-4.944-4.95,4.944-4.95L8.516,14.3,6.107,16.706H11.45v2.1Zm9.544,1.052h4.2V15.655h-4.2Zm-2.1-5.258a1.051,1.051,0,0,1,1.05-1.052h6.3a1.051,1.051,0,0,1,1.05,1.052v6.309a1.051,1.051,0,0,1-1.05,1.052H14.6a1.051,1.051,0,0,1-1.05-1.052Z" transform="translate(3.5 3.5)" fill="#fff"/>
</svg>
