<svg id="Coins" xmlns="http://www.w3.org/2000/svg" width="32" height="32" viewBox="0 0 32 32">
  <rect id="Rectangle_278" data-name="Rectangle 278" width="32" height="32" fill="#fff" opacity="0"/>
  <path id="Path_533" data-name="Path 533" d="M14,2A8,8,0,0,1,17.3,17.3,8,8,0,1,1,6.711,6.71,8,8,0,0,1,14,2ZM10,8a6,6,0,1,0,6,6A6,6,0,0,0,10,8Zm1,1v1h2v2H9a.5.5,0,0,0-.09.992L9,13h2a2.5,2.5,0,0,1,0,5v1H9V18H7V16h4a.5.5,0,0,0,.09-.992L11,15H9a2.5,2.5,0,0,1,0-5V9Zm3-5A5.985,5.985,0,0,0,9.521,6.016C9.681,6.008,9.843,6,10,6a8,8,0,0,1,8,8q0,.244-.014.484A6,6,0,0,0,14,4Z" transform="translate(3.995 3.997)" fill="#fff"/>
</svg>
