<svg id="Delete" xmlns="http://www.w3.org/2000/svg" width="50" height="50" viewBox="0 0 50 50">
  <rect id="Rectangle_260" data-name="Rectangle 260" width="50" height="50" fill="#c63939" opacity="0.004"/>
  <path id="Path_521" data-name="Path 521" d="M25.438,8.25H33.25v3.125H30.125V31.688a1.562,1.562,0,0,1-1.562,1.563H6.688a1.562,1.562,0,0,1-1.562-1.562V11.375H2V8.25H9.813V3.563A1.563,1.563,0,0,1,11.375,2h12.5a1.562,1.562,0,0,1,1.563,1.563ZM27,11.375H8.25v18.75H27ZM12.938,16.063h3.125v9.375H12.938Zm6.25,0h3.125v9.375H19.188ZM12.938,5.125V8.25h9.375V5.125Z" transform="translate(7.375 7.375)" fill="#c63939"/>
</svg>
