<svg id="Download" xmlns="http://www.w3.org/2000/svg" width="24" height="24" viewBox="0 0 24 24">
  <rect id="Rectangle_275" data-name="Rectangle 275" width="24" height="24" fill="#50b6be" opacity="0"/>
  <path id="Path_530" data-name="Path 530" d="M10,10.25v4.189l1.371-1.371,1.061,1.061L9.25,17.311,6.068,14.129l1.061-1.061L8.5,14.439V10.25ZM9.25,2a5.251,5.251,0,0,1,5.216,4.645,4.126,4.126,0,0,1-.715,8.088v-1.51A2.625,2.625,0,0,0,13.375,8a2.584,2.584,0,0,0-.458.04A3.75,3.75,0,1,0,5.5,7.25a3.719,3.719,0,0,0,.084.79A2.626,2.626,0,0,0,4.615,13.2l.135.023v1.51a4.126,4.126,0,0,1-.715-8.088A5.25,5.25,0,0,1,9.25,2Z" transform="translate(2.75 2.345)" fill="auto"/>
</svg>
