<svg id="Eye" xmlns="http://www.w3.org/2000/svg" width="32" height="32" viewBox="0 0 32 32">
  <g id="Rectangle_7" data-name="Rectangle 7" fill="#6d808a" stroke="#707070" stroke-width="1" opacity="0">
    <rect width="32" height="32" stroke="none"/>
    <rect x="0.5" y="0.5" width="31" height="31" fill="none"/>
  </g>
  <path id="Path_8" data-name="Path 8" d="M12,3a11,11,0,0,1,10.819,9A11,11,0,0,1,1.182,12,11,11,0,0,1,12,3Zm0,16a9,9,0,0,0,8.777-7A9,9,0,0,0,3.223,12,9,9,0,0,0,12,19Zm0-2.5A4.5,4.5,0,1,1,16.5,12,4.5,4.5,0,0,1,12,16.5Zm0-2A2.5,2.5,0,1,0,9.5,12,2.5,2.5,0,0,0,12,14.5Z" transform="translate(4 3.5)" fill="#6d808a"/>
</svg>
