<svg id="Filtrar" xmlns="http://www.w3.org/2000/svg" width="32" height="32" viewBox="0 0 32 32">
  <rect id="Rectangle_7" data-name="Rectangle 7" width="32" height="32" fill="#50b6be" opacity="0"/>
  <path id="Path_13" data-name="Path 13" d="M5.754,16.4a2.7,2.7,0,0,1,5.093,0H20v1.8H10.846a2.7,2.7,0,0,1-5.093,0H2V16.4Zm5.4-6.3a2.7,2.7,0,0,1,5.093,0H20v1.8H16.246a2.7,2.7,0,0,1-5.093,0H2V10.1Zm-5.4-6.3a2.7,2.7,0,0,1,5.093,0H20V5.6H10.846a2.7,2.7,0,0,1-5.093,0H2V3.8ZM8.3,5.6a.9.9,0,1,0-.9-.9A.9.9,0,0,0,8.3,5.6Zm5.4,6.3a.9.9,0,1,0-.9-.9A.9.9,0,0,0,13.7,11.9ZM8.3,18.2a.9.9,0,1,0-.9-.9A.9.9,0,0,0,8.3,18.2Z" transform="translate(5 5)" fill="#50b6be"/>
</svg>
