<svg id="Like" xmlns="http://www.w3.org/2000/svg" width="50" height="50" viewBox="0 0 50 50">
  <rect id="Rectangle_268" data-name="Rectangle 268" width="50" height="50" fill="#50b6be" opacity="0.001"/>
  <path id="Path_527" data-name="Path 527" d="M22.25,12.141h10a3.125,3.125,0,0,1,3.125,3.125v3.288a3.127,3.127,0,0,1-.235,1.19L30.3,31.486a1.563,1.563,0,0,1-1.445.968H2.563A1.562,1.562,0,0,1,1,30.891V15.266A1.562,1.562,0,0,1,2.563,13.7H8a1.563,1.563,0,0,0,1.277-.661L17.8.97a.781.781,0,0,1,.988-.248l2.835,1.417A3.906,3.906,0,0,1,23.661,6.6ZM10.375,16.184V29.328H27.813L32.25,18.554V15.266h-10a3.125,3.125,0,0,1-3.028-3.9l1.411-5.544a.781.781,0,0,0-.408-.892l-1.033-.517L11.832,14.844A4.685,4.685,0,0,1,10.375,16.184Zm-3.125.645H4.125v12.5H7.25Z" transform="translate(6.813 8.454)" fill="#50b6be"/>
</svg>
