<svg id="Link" xmlns="http://www.w3.org/2000/svg" width="28" height="28" viewBox="0 0 28 28">
  <rect id="Rectangle_10734" data-name="Rectangle 10734" width="28" height="28" fill="#50b6be" opacity="0"/>
  <path id="Path_576" data-name="Path 576" d="M16.34,13.865,15.1,12.628,16.34,11.39A4.375,4.375,0,1,0,10.153,5.2L8.915,6.44,7.678,5.2,8.915,3.966a6.125,6.125,0,0,1,8.662,8.662ZM13.865,16.34l-1.237,1.237A6.125,6.125,0,0,1,3.965,8.915L5.2,7.678,6.44,8.915,5.2,10.153A4.375,4.375,0,0,0,11.39,16.34L12.627,15.1Zm-.619-9.281L14.484,8.3,8.3,14.484,7.059,13.246Z" transform="translate(3.229 3.229)" fill="#50b6be"/>
</svg>
