<svg id="Lock" xmlns="http://www.w3.org/2000/svg" width="24" height="24" viewBox="0 0 24 24">
  <rect id="Rectangle_283" data-name="Rectangle 283" width="24" height="24" fill="#50b6be" opacity="0.002"/>
  <path id="Path_546" data-name="Path 546" d="M5.25,6.25V5.5a4.5,4.5,0,0,1,9,0v.75h1.5A.75.75,0,0,1,16.5,7v9a.75.75,0,0,1-.75.75h-12A.75.75,0,0,1,3,16V7a.75.75,0,0,1,.75-.75ZM15,7.75H4.5v7.5H15Zm-6,4.3a1.5,1.5,0,1,1,1.5,0v1.7H9ZM6.75,6.25h6V5.5a3,3,0,0,0-6,0Z" transform="translate(2.25 3.5)" fill="#50b6be"/>
</svg>
