<svg xmlns="http://www.w3.org/2000/svg" width="28" height="28" viewBox="0 0 28 28">
  <g id="Plant" opacity="0.2">
    <rect id="Rectangle_266" data-name="Rectangle 266" width="28" height="28" fill="#6d808a" opacity="0"/>
    <path id="Path_524" data-name="Path 524" d="M5.5,2A6.124,6.124,0,0,1,10.92,5.273a5.68,5.68,0,0,1,4.64-2.4h3.062V5.063a5.687,5.687,0,0,1-5.687,5.688H11.623v.875H16V17.75a1.75,1.75,0,0,1-1.75,1.75h-7A1.75,1.75,0,0,1,5.5,17.75V11.625H9.873V9.875H8.123A6.125,6.125,0,0,1,2,3.75V2Zm8.75,11.375h-7V17.75h7Zm2.625-8.75H15.561a3.938,3.938,0,0,0-3.937,3.938V9h1.313a3.937,3.937,0,0,0,3.937-3.937ZM5.5,3.75H3.748A4.375,4.375,0,0,0,8.123,8.125h1.75A4.375,4.375,0,0,0,5.5,3.75Z" transform="translate(4.127 3.25)" fill="#98a9b3"/>
  </g>
</svg>
