<svg id="Venta" xmlns="http://www.w3.org/2000/svg" width="32" height="32" viewBox="0 0 32 32">
  <rect id="Rectangle_243" data-name="Rectangle 243" width="32" height="32" fill="#dce2e6" opacity="0.001"/>
  <path id="Path_519" data-name="Path 519" d="M11.861,2.391a3,3,0,0,1,3.275-.035L19.291,5H21a1,1,0,0,1,1,1v9a1,1,0,0,1-1,1H19.48A2.65,2.65,0,0,1,18.2,18.449L13.1,21.5a2,2,0,0,1-2.071-.008,2,2,0,0,1-2.56.073L3.33,17.531a2,2,0,0,1-.564-2.447A2,2,0,0,1,2,13.511V6A1,1,0,0,1,3,5H7.947ZM4.173,13.645l.692-.606a3,3,0,0,1,4.2.24l2.7,2.972a3,3,0,0,1,.4,3.487l5.009-3.005a.657.657,0,0,0,.278-.791l-4.427-6.2a1,1,0,0,0-1.1-.377l-2.485.746a3,3,0,0,1-2.983-.752L6.155,9.07A2,2,0,0,1,5.679,7H4v6.511Zm9.889-9.6a1,1,0,0,0-1.092.012l-5.4,3.6.293.293a1,1,0,0,0,.994.251l2.485-.746a3,3,0,0,1,3.3,1.13L18.514,14H20V7h-.709a2,2,0,0,1-1.074-.313Zm-7.88,10.5L4.566,15.959,9.707,20l.7-1.232a1,1,0,0,0-.128-1.169l-2.7-2.972A1,1,0,0,0,6.182,14.545Z" transform="translate(4 4.058)" fill="#50b6be"/>
</svg>
