<svg id="Sponsor_-_TS" data-name="Sponsor - TS" xmlns="http://www.w3.org/2000/svg" width="24" height="24" viewBox="0 0 24 24">
  <rect id="Rectangle_10806" data-name="Rectangle 10806" width="24" height="24" fill="#475359" opacity="0.003"/>
  <path id="Path_4531" data-name="Path 4531" d="M15.75,2a.75.75,0,0,1,.75.75V5.568L15,7.068V3.5H4.5v12H15V13.432l1.5-1.5V16.25a.75.75,0,0,1-.75.75h-12A.75.75,0,0,1,3,16.25V2.75A.75.75,0,0,1,3.75,2Zm1.334,5.106,1.061,1.061L12.311,14l-1.062,0,0-1.059ZM10.5,9.5V11H6.75V9.5Zm2.25-3V8h-6V6.5Z" transform="translate(1.5 2.5)" fill="auto"/>
</svg>
