<svg id="Strategy_-_Navbar" data-name="Strategy - Navbar" xmlns="http://www.w3.org/2000/svg" width="28" height="28" viewBox="0 0 28 28">
  <rect id="Rectangle_10819" data-name="Rectangle 10819" width="28" height="28" fill="#DCE2E631" opacity="0.002"/>
  <path id="Path_4538" data-name="Path 4538" d="M3,6.275l7.39-4.926a.875.875,0,0,1,.971,0l7.39,4.926v12.25a.875.875,0,0,1-.875.875h-14A.875.875,0,0,1,3,18.525Zm1.75.937V17.65H17V7.212L10.88,3.128ZM7.38,14.15h7V15.9h-7Zm0-2.625h7v1.75h-7Zm3.5-1.75a1.75,1.75,0,1,1,1.75-1.75A1.75,1.75,0,0,1,10.88,9.775Z" transform="translate(3.121 3.699)" fill="#DCE2E631"/>
</svg>
