<svg id="Like" xmlns="http://www.w3.org/2000/svg" width="24" height="24" viewBox="0 0 24 24">
  <path id="Path_4328" data-name="Path 4328" d="M0,0H24V24H0Z" fill="none"/>
  <path id="Path_4329" data-name="Path 4329" d="M14.6,8H21a2,2,0,0,1,2,2v2.1a2,2,0,0,1-.15.762l-3.095,7.515A1,1,0,0,1,18.83,21H2a1,1,0,0,1-1-1V10A1,1,0,0,1,2,9H5.482A1,1,0,0,0,6.3,8.577L11.752.85a.5.5,0,0,1,.632-.159L14.2,1.6a2.5,2.5,0,0,1,1.3,2.853ZM7,10.588V19H18.16L21,12.1V10H14.6a2,2,0,0,1-1.938-2.493l.9-3.548a.5.5,0,0,0-.261-.571l-.661-.33L7.933,9.73A3.016,3.016,0,0,1,7,10.588ZM5,11H3v8H5Z" fill="#00565F"/>
</svg>