<svg id="Sun" xmlns="http://www.w3.org/2000/svg" width="32" height="32" viewBox="0 0 32 32">
  <rect id="Rectangle_274" data-name="Rectangle 274" width="32" height="32" fill="#50b6be" opacity="0.005"/>
  <path id="Path_529" data-name="Path 529" d="M12,18a6,6,0,1,1,6-6A6,6,0,0,1,12,18Zm0-2a4,4,0,1,0-4-4A4,4,0,0,0,12,16ZM11,1h2V4H11Zm0,19h2v3H11ZM3.515,4.929,4.929,3.515,7.05,5.636,5.636,7.05ZM16.95,18.364l1.414-1.414,2.121,2.121-1.414,1.414ZM19.071,3.515l1.414,1.414L18.364,7.05,16.95,5.636ZM5.636,16.95,7.05,18.364,4.929,20.485,3.515,19.071ZM23,11v2H20V11ZM4,11v2H1V11Z" transform="translate(4 4)" fill="#50b6be"/>
</svg>
