<svg id="Upload" xmlns="http://www.w3.org/2000/svg" width="28" height="28" viewBox="0 0 28 28">
  <rect id="Rectangle_256" data-name="Rectangle 256" width="28" height="28" fill="#50b6be" opacity="0"/>
  <path id="Path_520" data-name="Path 520" d="M10.625,11.263l3.712,3.712L13.1,16.212l-1.6-1.6V19.5H9.75V14.611l-1.6,1.6L6.913,14.975Zm0-9.263A6.126,6.126,0,0,1,16.71,7.42a4.814,4.814,0,0,1-.834,9.436V15.094A3.063,3.063,0,0,0,15.438,9a3.014,3.014,0,0,0-.535.047A4.375,4.375,0,1,0,6.25,8.125a4.339,4.339,0,0,0,.1.922,3.063,3.063,0,0,0-1.131,6.021l.158.027v1.761A4.813,4.813,0,0,1,4.541,7.42,6.125,6.125,0,0,1,10.625,2Z" transform="translate(3.375 3.25)" fill="#50b6be"/>
</svg>
