<svg id="Upload" xmlns="http://www.w3.org/2000/svg" width="32" height="32" viewBox="0 0 32 32">
  <rect id="Rectangle_256" data-name="Rectangle 256" width="32" height="32" fill="#50b6be" opacity="0"/>
  <path id="Path_520" data-name="Path 520" d="M12,12.586l4.243,4.243-1.414,1.414L13,16.415V22H11V16.413l-1.828,1.83L7.757,16.828ZM12,2a7,7,0,0,1,6.954,6.194A5.5,5.5,0,0,1,18,18.978V16.964A3.5,3.5,0,0,0,17.5,10a3.445,3.445,0,0,0-.611.054A5,5,0,1,0,7,9a4.958,4.958,0,0,0,.112,1.053A3.5,3.5,0,0,0,5.82,16.934l.18.031v2.013A5.5,5.5,0,0,1,5.046,8.194,7,7,0,0,1,12,2Z" transform="translate(4 4)" fill="auto"/>
</svg>
