<svg id="User-add" xmlns="http://www.w3.org/2000/svg" width="28" height="28" viewBox="0 0 28 28">
  <rect id="Rectangle_10724" data-name="Rectangle 10724" width="28" height="28" fill="#50b6be" opacity="0"/>
  <path id="Path_573" data-name="Path 573" d="M12.75,12.6v1.828a5.254,5.254,0,0,0-7,4.951H4A7.006,7.006,0,0,1,12.75,12.6ZM11,11.5a5.25,5.25,0,1,1,5.25-5.25A5.249,5.249,0,0,1,11,11.5Zm0-1.75a3.5,3.5,0,1,0-3.5-3.5A3.5,3.5,0,0,0,11,9.75ZM16.25,15V12.375H18V15h2.625v1.75H18v2.625H16.25V16.75H13.625V15Z" transform="translate(1.25 3.375)" fill="#50b6be"/>
</svg>
