<svg id="User_-_check" data-name="User - check" xmlns="http://www.w3.org/2000/svg" width="32" height="32" viewBox="0 0 32 32">
  <rect id="Rectangle_10818" data-name="Rectangle 10818" width="32" height="32" fill="#50b6be" opacity="0"/>
  <path id="Path_4537" data-name="Path 4537" d="M14,14.252v2.089A6,6,0,0,0,6,22H4a8.007,8.007,0,0,1,10-7.748ZM12,13a6,6,0,1,1,6-6A6,6,0,0,1,12,13Zm0-2A4,4,0,1,0,8,7,4,4,0,0,0,12,11Zm5.793,8.914,3.535-3.535,1.414,1.414-4.95,4.95-3.536-3.535,1.414-1.414Z" transform="translate(2.629 4.129)" fill="auto"/>
</svg>
