<svg id="Windy" xmlns="http://www.w3.org/2000/svg" width="32" height="32" viewBox="0 0 32 32">
  <rect id="Rectangle_277" data-name="Rectangle 277" width="32" height="32" fill="#50b6be" opacity="0"/>
  <path id="Path_532" data-name="Path 532" d="M10.5,17H4V15h6.5a3.5,3.5,0,1,1-3.278,4.729l1.873-.7A1.5,1.5,0,1,0,10.5,17ZM5,11H18.5a3.5,3.5,0,1,1-3.278,4.729l1.873-.7A1.5,1.5,0,1,0,18.5,13H5A3,3,0,0,1,5,7h8.5a1.5,1.5,0,1,0-1.4-2.027l-1.873-.7A3.5,3.5,0,1,1,13.5,9H5a1,1,0,0,0,0,2Z" transform="translate(4 4)" fill="#50b6be"/>
</svg>
